# xmcd CD database file
#
# Track frame offsets:
#	150
#	17430
#	44712
#	61817
#
# Disc length: 1033 seconds
#
# Revision: 2
# Processed by: cddbd v1.5.2PL0 Copyright (c) Steve Scherf et al.
# Submitted via: CDex 1.51
#
DISCID=2b040704
DTITLE=Christina Aguilera - Ain`t No Other Man
DYEAR=2006
DGENRE=Pop
TTITLE0=Ain`t No Other Man (Main Version)
TTITLE1=Ain´t No Other Man (Jake Ridley Remix)
TTITLE2=Ain´t No Other Man (Ospina and Sullivan Remix)
TTITLE3=Ain´t No Other Man (Acapella)
EXTD=YEAR: 2006
EXTT0=
EXTT1=
EXTT2=
EXTT3=
PLAYORDER=
